<mxfile host="65bd71144e">
    <diagram id="Ge1yf5hAT5oPMUVYcl_X" name="Page-1">
        <mxGraphModel dx="477" dy="468" grid="1" gridSize="10" guides="1" tooltips="1" connect="1" arrows="1" fold="1" page="1" pageScale="1" pageWidth="850" pageHeight="1100" math="0" shadow="0">
            <root>
                <mxCell id="0"/>
                <mxCell id="1" parent="0"/>
                <mxCell id="8" value="input age" style="strokeWidth=2;html=1;shape=mxgraph.flowchart.display;whiteSpace=wrap;fillColor=#E5CCFF;" vertex="1" parent="1">
                    <mxGeometry x="120" y="130" width="120" height="60" as="geometry"/>
                </mxCell>
                <mxCell id="9" style="edgeStyle=none;html=1;entryX=0.5;entryY=0;entryDx=0;entryDy=0;entryPerimeter=0;" edge="1" parent="1" target="8">
                    <mxGeometry relative="1" as="geometry">
                        <mxPoint x="180" y="100" as="sourcePoint"/>
                    </mxGeometry>
                </mxCell>
                <mxCell id="14" style="edgeStyle=none;html=1;" edge="1" parent="1" source="10">
                    <mxGeometry relative="1" as="geometry">
                        <mxPoint x="180" y="450" as="targetPoint"/>
                    </mxGeometry>
                </mxCell>
                <mxCell id="10" value="age &amp;gt;= 18?" style="strokeWidth=2;html=1;shape=mxgraph.flowchart.decision;whiteSpace=wrap;fillColor=#CCFFCC;" vertex="1" parent="1">
                    <mxGeometry x="120" y="320" width="120" height="100" as="geometry"/>
                </mxCell>
                <mxCell id="16" value="input age" style="html=1;strokeWidth=2;shape=manualInput;whiteSpace=wrap;rounded=1;size=26;arcSize=11;fillColor=#FFFFCC;" vertex="1" parent="1">
                    <mxGeometry x="130" y="230" width="100" height="60" as="geometry"/>
                </mxCell>
                <mxCell id="17" style="edgeStyle=none;html=1;entryX=0.49;entryY=0.267;entryDx=0;entryDy=0;entryPerimeter=0;" edge="1" parent="1" source="8" target="16">
                    <mxGeometry relative="1" as="geometry"/>
                </mxCell>
                <mxCell id="18" style="edgeStyle=none;html=1;entryX=0.5;entryY=0;entryDx=0;entryDy=0;entryPerimeter=0;" edge="1" parent="1" source="16" target="10">
                    <mxGeometry relative="1" as="geometry"/>
                </mxCell>
                <mxCell id="23" style="edgeStyle=none;html=1;" edge="1" parent="1" source="28">
                    <mxGeometry relative="1" as="geometry">
                        <mxPoint x="180" y="570" as="sourcePoint"/>
                        <mxPoint x="180" y="610" as="targetPoint"/>
                    </mxGeometry>
                </mxCell>
                <mxCell id="25" value="yes" style="text;html=1;align=center;verticalAlign=middle;whiteSpace=wrap;rounded=0;" vertex="1" parent="1">
                    <mxGeometry x="130" y="520" width="60" height="30" as="geometry"/>
                </mxCell>
                <mxCell id="26" value="no" style="text;html=1;align=center;verticalAlign=middle;whiteSpace=wrap;rounded=0;" vertex="1" parent="1">
                    <mxGeometry x="300" y="340" width="60" height="30" as="geometry"/>
                </mxCell>
                <mxCell id="27" value="&lt;span style=&quot;color: rgb(0, 0, 0);&quot;&gt;&quot;you are an adult&quot;&lt;/span&gt;" style="strokeWidth=2;html=1;shape=mxgraph.flowchart.display;whiteSpace=wrap;fillColor=#E5CCFF;" vertex="1" parent="1">
                    <mxGeometry x="120" y="450" width="120" height="60" as="geometry"/>
                </mxCell>
                <mxCell id="29" style="edgeStyle=none;html=1;entryX=0.5;entryY=0;entryDx=0;entryDy=0;entryPerimeter=0;" edge="1" parent="1" source="27" target="28">
                    <mxGeometry relative="1" as="geometry"/>
                </mxCell>
                <mxCell id="30" value="" style="edgeStyle=none;html=1;" edge="1" parent="1" target="28">
                    <mxGeometry relative="1" as="geometry">
                        <mxPoint x="180" y="570" as="sourcePoint"/>
                        <mxPoint x="180" y="610" as="targetPoint"/>
                    </mxGeometry>
                </mxCell>
                <mxCell id="28" value="" style="verticalLabelPosition=bottom;verticalAlign=top;html=1;shape=mxgraph.flowchart.on-page_reference;" vertex="1" parent="1">
                    <mxGeometry x="170" y="560" width="20" height="20" as="geometry"/>
                </mxCell>
                <mxCell id="33" style="edgeStyle=none;html=1;entryX=1;entryY=0.5;entryDx=0;entryDy=0;entryPerimeter=0;" edge="1" parent="1" source="10" target="28">
                    <mxGeometry relative="1" as="geometry">
                        <Array as="points">
                            <mxPoint x="360" y="370"/>
                            <mxPoint x="360" y="570"/>
                        </Array>
                    </mxGeometry>
                </mxCell>
                <mxCell id="34" value="End" style="strokeWidth=2;html=1;shape=mxgraph.flowchart.terminator;whiteSpace=wrap;fillColor=#FF9999;" vertex="1" parent="1">
                    <mxGeometry x="130" y="610" width="100" height="60" as="geometry"/>
                </mxCell>
                <mxCell id="35" value="&lt;span style=&quot;color: rgb(0, 0, 0);&quot;&gt;start&lt;/span&gt;" style="strokeWidth=2;html=1;shape=mxgraph.flowchart.terminator;whiteSpace=wrap;fillColor=#FF9999;" vertex="1" parent="1">
                    <mxGeometry x="130" y="40" width="100" height="60" as="geometry"/>
                </mxCell>
            </root>
        </mxGraphModel>
    </diagram>
</mxfile>